<mxfile host="app.diagrams.net" agent="Mozilla/5.0 (Windows NT 10.0; Win64; x64; rv:135.0) Gecko/20100101 Firefox/135.0" version="26.0.6">
  <diagram name="Page-1" id="98SmRX5cnOyIdOVOvnTu">
    <mxGraphModel dx="2234" dy="819" grid="1" gridSize="10" guides="1" tooltips="1" connect="1" arrows="1" fold="1" page="1" pageScale="1" pageWidth="850" pageHeight="1100" math="0" shadow="0">
      <root>
        <mxCell id="0" />
        <mxCell id="1" parent="0" />
        <mxCell id="1v1T8cn6SyJ78naRUHmZ-3" value="" style="edgeStyle=orthogonalEdgeStyle;rounded=0;orthogonalLoop=1;jettySize=auto;html=1;" edge="1" parent="1" source="1v1T8cn6SyJ78naRUHmZ-1" target="1v1T8cn6SyJ78naRUHmZ-2">
          <mxGeometry relative="1" as="geometry" />
        </mxCell>
        <mxCell id="1v1T8cn6SyJ78naRUHmZ-1" value="App Entry" style="rounded=0;whiteSpace=wrap;html=1;" vertex="1" parent="1">
          <mxGeometry x="190" y="210" width="120" height="60" as="geometry" />
        </mxCell>
        <mxCell id="1v1T8cn6SyJ78naRUHmZ-5" value="" style="edgeStyle=orthogonalEdgeStyle;rounded=0;orthogonalLoop=1;jettySize=auto;html=1;" edge="1" parent="1" source="1v1T8cn6SyJ78naRUHmZ-2" target="1v1T8cn6SyJ78naRUHmZ-4">
          <mxGeometry relative="1" as="geometry" />
        </mxCell>
        <mxCell id="1v1T8cn6SyJ78naRUHmZ-6" value="No" style="edgeLabel;html=1;align=center;verticalAlign=middle;resizable=0;points=[];" vertex="1" connectable="0" parent="1v1T8cn6SyJ78naRUHmZ-5">
          <mxGeometry x="-0.4667" y="3" relative="1" as="geometry">
            <mxPoint x="14" as="offset" />
          </mxGeometry>
        </mxCell>
        <mxCell id="1v1T8cn6SyJ78naRUHmZ-8" value="" style="edgeStyle=orthogonalEdgeStyle;rounded=0;orthogonalLoop=1;jettySize=auto;html=1;" edge="1" parent="1" source="1v1T8cn6SyJ78naRUHmZ-2" target="1v1T8cn6SyJ78naRUHmZ-7">
          <mxGeometry relative="1" as="geometry" />
        </mxCell>
        <mxCell id="1v1T8cn6SyJ78naRUHmZ-9" value="Yes" style="edgeLabel;html=1;align=center;verticalAlign=middle;resizable=0;points=[];" vertex="1" connectable="0" parent="1v1T8cn6SyJ78naRUHmZ-8">
          <mxGeometry x="-0.3" y="-1" relative="1" as="geometry">
            <mxPoint as="offset" />
          </mxGeometry>
        </mxCell>
        <mxCell id="1v1T8cn6SyJ78naRUHmZ-2" value="Has Setup?" style="rhombus;whiteSpace=wrap;html=1;" vertex="1" parent="1">
          <mxGeometry x="210" y="310" width="80" height="80" as="geometry" />
        </mxCell>
        <mxCell id="1v1T8cn6SyJ78naRUHmZ-16" value="" style="edgeStyle=orthogonalEdgeStyle;rounded=0;orthogonalLoop=1;jettySize=auto;html=1;" edge="1" parent="1" source="1v1T8cn6SyJ78naRUHmZ-4" target="1v1T8cn6SyJ78naRUHmZ-14">
          <mxGeometry relative="1" as="geometry" />
        </mxCell>
        <mxCell id="1v1T8cn6SyJ78naRUHmZ-4" value="Configuration Dialog" style="rounded=0;whiteSpace=wrap;html=1;" vertex="1" parent="1">
          <mxGeometry x="480" y="320" width="120" height="60" as="geometry" />
        </mxCell>
        <mxCell id="1v1T8cn6SyJ78naRUHmZ-41" style="edgeStyle=orthogonalEdgeStyle;rounded=0;orthogonalLoop=1;jettySize=auto;html=1;exitX=0.25;exitY=1;exitDx=0;exitDy=0;entryX=0.75;entryY=1;entryDx=0;entryDy=0;" edge="1" parent="1" source="1v1T8cn6SyJ78naRUHmZ-7" target="1v1T8cn6SyJ78naRUHmZ-26">
          <mxGeometry relative="1" as="geometry" />
        </mxCell>
        <mxCell id="1v1T8cn6SyJ78naRUHmZ-42" value="User wants to add Theme" style="edgeLabel;html=1;align=center;verticalAlign=middle;resizable=0;points=[];" vertex="1" connectable="0" parent="1v1T8cn6SyJ78naRUHmZ-41">
          <mxGeometry x="0.2857" y="1" relative="1" as="geometry">
            <mxPoint x="25" as="offset" />
          </mxGeometry>
        </mxCell>
        <mxCell id="1v1T8cn6SyJ78naRUHmZ-44" style="edgeStyle=orthogonalEdgeStyle;rounded=0;orthogonalLoop=1;jettySize=auto;html=1;entryX=0.5;entryY=0;entryDx=0;entryDy=0;" edge="1" parent="1" source="1v1T8cn6SyJ78naRUHmZ-7" target="1v1T8cn6SyJ78naRUHmZ-43">
          <mxGeometry relative="1" as="geometry" />
        </mxCell>
        <mxCell id="1v1T8cn6SyJ78naRUHmZ-7" value="Themes Menu&lt;br&gt;(With Toggles)" style="rounded=0;whiteSpace=wrap;html=1;" vertex="1" parent="1">
          <mxGeometry x="190" y="560" width="120" height="60" as="geometry" />
        </mxCell>
        <mxCell id="1v1T8cn6SyJ78naRUHmZ-17" value="" style="edgeStyle=orthogonalEdgeStyle;rounded=0;orthogonalLoop=1;jettySize=auto;html=1;" edge="1" parent="1" source="1v1T8cn6SyJ78naRUHmZ-14" target="1v1T8cn6SyJ78naRUHmZ-15">
          <mxGeometry relative="1" as="geometry" />
        </mxCell>
        <mxCell id="1v1T8cn6SyJ78naRUHmZ-21" value="No" style="edgeLabel;html=1;align=center;verticalAlign=middle;resizable=0;points=[];" vertex="1" connectable="0" parent="1v1T8cn6SyJ78naRUHmZ-17">
          <mxGeometry x="-0.4333" y="-1" relative="1" as="geometry">
            <mxPoint as="offset" />
          </mxGeometry>
        </mxCell>
        <mxCell id="1v1T8cn6SyJ78naRUHmZ-20" value="" style="edgeStyle=orthogonalEdgeStyle;rounded=0;orthogonalLoop=1;jettySize=auto;html=1;" edge="1" parent="1" source="1v1T8cn6SyJ78naRUHmZ-14" target="1v1T8cn6SyJ78naRUHmZ-18">
          <mxGeometry relative="1" as="geometry" />
        </mxCell>
        <mxCell id="1v1T8cn6SyJ78naRUHmZ-22" value="Yes" style="edgeLabel;html=1;align=center;verticalAlign=middle;resizable=0;points=[];" vertex="1" connectable="0" parent="1v1T8cn6SyJ78naRUHmZ-20">
          <mxGeometry x="0.2" y="-1" relative="1" as="geometry">
            <mxPoint x="1" y="-10" as="offset" />
          </mxGeometry>
        </mxCell>
        <mxCell id="1v1T8cn6SyJ78naRUHmZ-14" value="Found Profiles.ini?" style="rhombus;whiteSpace=wrap;html=1;" vertex="1" parent="1">
          <mxGeometry x="500" y="430" width="80" height="80" as="geometry" />
        </mxCell>
        <mxCell id="1v1T8cn6SyJ78naRUHmZ-19" style="edgeStyle=orthogonalEdgeStyle;rounded=0;orthogonalLoop=1;jettySize=auto;html=1;entryX=1;entryY=0.5;entryDx=0;entryDy=0;" edge="1" parent="1" source="1v1T8cn6SyJ78naRUHmZ-15" target="1v1T8cn6SyJ78naRUHmZ-18">
          <mxGeometry relative="1" as="geometry">
            <Array as="points">
              <mxPoint x="740" y="590" />
            </Array>
          </mxGeometry>
        </mxCell>
        <mxCell id="1v1T8cn6SyJ78naRUHmZ-15" value="File picker for Profiles.ini" style="rounded=0;whiteSpace=wrap;html=1;" vertex="1" parent="1">
          <mxGeometry x="680" y="440" width="120" height="60" as="geometry" />
        </mxCell>
        <mxCell id="1v1T8cn6SyJ78naRUHmZ-24" value="" style="edgeStyle=orthogonalEdgeStyle;rounded=0;orthogonalLoop=1;jettySize=auto;html=1;" edge="1" parent="1" source="1v1T8cn6SyJ78naRUHmZ-18" target="1v1T8cn6SyJ78naRUHmZ-7">
          <mxGeometry relative="1" as="geometry" />
        </mxCell>
        <mxCell id="1v1T8cn6SyJ78naRUHmZ-29" value="Profile was picked" style="edgeLabel;html=1;align=center;verticalAlign=middle;resizable=0;points=[];" vertex="1" connectable="0" parent="1v1T8cn6SyJ78naRUHmZ-24">
          <mxGeometry x="0.3412" y="-3" relative="1" as="geometry">
            <mxPoint x="34" y="3" as="offset" />
          </mxGeometry>
        </mxCell>
        <mxCell id="1v1T8cn6SyJ78naRUHmZ-31" value="" style="edgeStyle=orthogonalEdgeStyle;rounded=0;orthogonalLoop=1;jettySize=auto;html=1;" edge="1" parent="1" source="1v1T8cn6SyJ78naRUHmZ-18" target="1v1T8cn6SyJ78naRUHmZ-30">
          <mxGeometry relative="1" as="geometry" />
        </mxCell>
        <mxCell id="1v1T8cn6SyJ78naRUHmZ-32" value="No Profile Picked / Cancel" style="edgeLabel;html=1;align=center;verticalAlign=middle;resizable=0;points=[];" vertex="1" connectable="0" parent="1v1T8cn6SyJ78naRUHmZ-31">
          <mxGeometry x="-0.0941" relative="1" as="geometry">
            <mxPoint as="offset" />
          </mxGeometry>
        </mxCell>
        <mxCell id="1v1T8cn6SyJ78naRUHmZ-18" value="Profile Picker" style="rounded=0;whiteSpace=wrap;html=1;" vertex="1" parent="1">
          <mxGeometry x="480" y="560" width="120" height="60" as="geometry" />
        </mxCell>
        <mxCell id="1v1T8cn6SyJ78naRUHmZ-28" style="edgeStyle=orthogonalEdgeStyle;rounded=0;orthogonalLoop=1;jettySize=auto;html=1;" edge="1" parent="1">
          <mxGeometry relative="1" as="geometry">
            <mxPoint x="50" y="560" as="sourcePoint" />
            <mxPoint x="220" y="560" as="targetPoint" />
            <Array as="points">
              <mxPoint x="50" y="540" />
              <mxPoint x="220" y="540" />
            </Array>
          </mxGeometry>
        </mxCell>
        <mxCell id="1v1T8cn6SyJ78naRUHmZ-36" value="User added Theme" style="edgeLabel;html=1;align=center;verticalAlign=middle;resizable=0;points=[];" vertex="1" connectable="0" parent="1v1T8cn6SyJ78naRUHmZ-28">
          <mxGeometry x="-0.0267" y="3" relative="1" as="geometry">
            <mxPoint x="8" y="3" as="offset" />
          </mxGeometry>
        </mxCell>
        <mxCell id="1v1T8cn6SyJ78naRUHmZ-26" value="Add Theme Dialog" style="rounded=0;whiteSpace=wrap;html=1;" vertex="1" parent="1">
          <mxGeometry x="-40" y="560" width="120" height="60" as="geometry" />
        </mxCell>
        <mxCell id="1v1T8cn6SyJ78naRUHmZ-30" value="Exit" style="ellipse;whiteSpace=wrap;html=1;aspect=fixed;" vertex="1" parent="1">
          <mxGeometry x="500" y="790" width="80" height="80" as="geometry" />
        </mxCell>
        <mxCell id="1v1T8cn6SyJ78naRUHmZ-46" value="" style="edgeStyle=orthogonalEdgeStyle;rounded=0;orthogonalLoop=1;jettySize=auto;html=1;" edge="1" parent="1" source="1v1T8cn6SyJ78naRUHmZ-43" target="1v1T8cn6SyJ78naRUHmZ-45">
          <mxGeometry relative="1" as="geometry" />
        </mxCell>
        <mxCell id="1v1T8cn6SyJ78naRUHmZ-52" value="Yes" style="edgeLabel;html=1;align=center;verticalAlign=middle;resizable=0;points=[];" vertex="1" connectable="0" parent="1v1T8cn6SyJ78naRUHmZ-46">
          <mxGeometry x="-0.3" y="1" relative="1" as="geometry">
            <mxPoint as="offset" />
          </mxGeometry>
        </mxCell>
        <mxCell id="1v1T8cn6SyJ78naRUHmZ-49" value="" style="edgeStyle=orthogonalEdgeStyle;rounded=0;orthogonalLoop=1;jettySize=auto;html=1;" edge="1" parent="1" source="1v1T8cn6SyJ78naRUHmZ-43" target="1v1T8cn6SyJ78naRUHmZ-48">
          <mxGeometry relative="1" as="geometry" />
        </mxCell>
        <mxCell id="1v1T8cn6SyJ78naRUHmZ-51" value="No" style="edgeLabel;html=1;align=center;verticalAlign=middle;resizable=0;points=[];" vertex="1" connectable="0" parent="1v1T8cn6SyJ78naRUHmZ-49">
          <mxGeometry x="-0.25" y="-4" relative="1" as="geometry">
            <mxPoint as="offset" />
          </mxGeometry>
        </mxCell>
        <mxCell id="1v1T8cn6SyJ78naRUHmZ-43" value="Success?" style="rhombus;whiteSpace=wrap;html=1;" vertex="1" parent="1">
          <mxGeometry x="210" y="680" width="80" height="80" as="geometry" />
        </mxCell>
        <mxCell id="1v1T8cn6SyJ78naRUHmZ-47" style="edgeStyle=orthogonalEdgeStyle;rounded=0;orthogonalLoop=1;jettySize=auto;html=1;entryX=0;entryY=0.5;entryDx=0;entryDy=0;" edge="1" parent="1" source="1v1T8cn6SyJ78naRUHmZ-45" target="1v1T8cn6SyJ78naRUHmZ-30">
          <mxGeometry relative="1" as="geometry" />
        </mxCell>
        <mxCell id="1v1T8cn6SyJ78naRUHmZ-45" value="Themes applied dialog!" style="rounded=0;whiteSpace=wrap;html=1;" vertex="1" parent="1">
          <mxGeometry x="190" y="800" width="120" height="60" as="geometry" />
        </mxCell>
        <mxCell id="1v1T8cn6SyJ78naRUHmZ-50" style="edgeStyle=orthogonalEdgeStyle;rounded=0;orthogonalLoop=1;jettySize=auto;html=1;entryX=0.75;entryY=1;entryDx=0;entryDy=0;" edge="1" parent="1" source="1v1T8cn6SyJ78naRUHmZ-48" target="1v1T8cn6SyJ78naRUHmZ-7">
          <mxGeometry relative="1" as="geometry">
            <Array as="points">
              <mxPoint x="390" y="660" />
              <mxPoint x="280" y="660" />
            </Array>
          </mxGeometry>
        </mxCell>
        <mxCell id="1v1T8cn6SyJ78naRUHmZ-48" value="Show errors" style="rounded=0;whiteSpace=wrap;html=1;" vertex="1" parent="1">
          <mxGeometry x="330" y="690" width="120" height="60" as="geometry" />
        </mxCell>
      </root>
    </mxGraphModel>
  </diagram>
</mxfile>
